<mxfile host="app.diagrams.net" modified="2022-09-19T15:49:39.821Z" agent="5.0 (Macintosh; Intel Mac OS X 10_15_7) AppleWebKit/605.1.15 (KHTML, like Gecko) Version/15.6.1 Safari/605.1.15" etag="kEyNyelZJU7XPrdSphg4" version="20.3.3" type="github">
  <diagram id="TFUVUGWemRRzaMbOqD2M" name="Page-1">
    <mxGraphModel dx="946" dy="564" grid="1" gridSize="10" guides="1" tooltips="1" connect="1" arrows="1" fold="1" page="1" pageScale="1" pageWidth="850" pageHeight="1100" background="#114B5F" math="0" shadow="0">
      <root>
        <mxCell id="0" />
        <mxCell id="1" parent="0" />
        <mxCell id="ZOkty1XalbMZKGXZm4HZ-3" value="" style="edgeStyle=orthogonalEdgeStyle;curved=1;rounded=1;orthogonalLoop=1;jettySize=auto;html=1;" edge="1" parent="1" source="ZOkty1XalbMZKGXZm4HZ-1" target="ZOkty1XalbMZKGXZm4HZ-2">
          <mxGeometry relative="1" as="geometry" />
        </mxCell>
        <mxCell id="ZOkty1XalbMZKGXZm4HZ-1" value="" style="whiteSpace=wrap;html=1;aspect=fixed;rounded=1;" vertex="1" parent="1">
          <mxGeometry x="120" y="240" width="80" height="80" as="geometry" />
        </mxCell>
        <mxCell id="ZOkty1XalbMZKGXZm4HZ-5" value="" style="edgeStyle=orthogonalEdgeStyle;curved=1;rounded=1;orthogonalLoop=1;jettySize=auto;html=1;" edge="1" parent="1" source="ZOkty1XalbMZKGXZm4HZ-2" target="ZOkty1XalbMZKGXZm4HZ-4">
          <mxGeometry relative="1" as="geometry" />
        </mxCell>
        <mxCell id="ZOkty1XalbMZKGXZm4HZ-2" value="" style="ellipse;whiteSpace=wrap;html=1;rounded=1;" vertex="1" parent="1">
          <mxGeometry x="290" y="250" width="120" height="60" as="geometry" />
        </mxCell>
        <mxCell id="ZOkty1XalbMZKGXZm4HZ-4" value="" style="shape=singleArrow;whiteSpace=wrap;html=1;arrowWidth=0.4;arrowSize=0.4;rounded=1;" vertex="1" parent="1">
          <mxGeometry x="480" y="250" width="80" height="60" as="geometry" />
        </mxCell>
      </root>
    </mxGraphModel>
  </diagram>
</mxfile>
